<svg width="40" height="40" viewBox="0 0 40 40" fill="none" xmlns="http://www.w3.org/2000/svg">
<rect width="40" height="40" rx="20" fill="black"/>
<path d="M15.5412 3.75C10.0779 9.97529 7.5301 15.1319 7.83728 20.3404C8.11277 25.0118 10.6937 29.9251 15.5524 36.2481L18 34" stroke="white" stroke-width="2" stroke-linecap="round" stroke-linejoin="round"/>
<path d="M7.90894 20.0538H11.098" stroke="white" stroke-width="2" stroke-linecap="round"/>
<path d="M15.5771 3.75L18.0854 5.82828" stroke="white" stroke-width="2" stroke-linecap="round"/>
<path d="M19.8769 7.26154C10.9275 16.5834 11.0586 22.1949 19.8769 32.8459" stroke="white" stroke-width="2" stroke-linecap="round"/>
<path d="M23.0302 10.4148C15.5371 17.9429 15.6436 22.3861 23.0302 29.6926" stroke="white" stroke-width="2" stroke-linecap="round"/>
<path d="M17.5479 20.0538H21.7761" stroke="white" stroke-width="2" stroke-linecap="round"/>
<path d="M26.1835 13.5681C20.9594 18.1875 21.0669 21.5375 26.1835 26.5394" stroke="white" stroke-width="2" stroke-linecap="round"/>
<path fill-rule="evenodd" clip-rule="evenodd" d="M28.6408 17.4219C30.0921 17.4219 31.25 18.6093 31.25 20.0513C31.25 21.5084 30.1072 22.7344 28.6408 22.7344C27.1701 22.7344 26.0156 21.5127 26.0156 20.0513C26.0156 18.6049 27.1851 17.4219 28.6408 17.4219Z" stroke="white" stroke-width="2"/>
</svg>
