<svg width="402" height="538" viewBox="0 0 402 538" fill="none" xmlns="http://www.w3.org/2000/svg">
<path d="M134.838 13C48.7125 111.137 8.54819 192.427 13.3906 274.536C17.7336 348.177 58.4199 425.633 135.014 525.31" stroke="white" stroke-width="25" stroke-linecap="round" stroke-linejoin="round"/>
<path d="M14.5203 270.017H64.794" stroke="white" stroke-width="25" stroke-linecap="round"/>
<path d="M135.403 13L174.944 45.7626" stroke="white" stroke-width="25" stroke-linecap="round"/>
<path d="M135.403 525.34L174.944 494.837" stroke="white" stroke-width="25" stroke-linecap="round"/>
<path d="M203.188 68.3576C62.1057 215.31 64.1735 303.772 203.188 471.677" stroke="white" stroke-width="25" stroke-linecap="round"/>
<path d="M252.897 118.066C134.773 236.741 136.453 306.786 252.897 421.968" stroke="white" stroke-width="25" stroke-linecap="round"/>
<path d="M166.471 270.017H233.126" stroke="white" stroke-width="25" stroke-linecap="round"/>
<path d="M302.606 167.775C220.251 240.597 221.946 293.407 302.606 372.259" stroke="white" stroke-width="25" stroke-linecap="round"/>
<g filter="url(#filter0_d_4_38)">
<ellipse cx="341.017" cy="270.017" rx="56.4873" ry="56.4873" fill="white"/>
</g>
<defs>
<filter id="filter0_d_4_38" x="280.53" y="213.53" width="120.975" height="120.975" filterUnits="userSpaceOnUse" color-interpolation-filters="sRGB">
<feFlood flood-opacity="0" result="BackgroundImageFix"/>
<feColorMatrix in="SourceAlpha" type="matrix" values="0 0 0 0 0 0 0 0 0 0 0 0 0 0 0 0 0 0 127 0" result="hardAlpha"/>
<feOffset dy="4"/>
<feGaussianBlur stdDeviation="2"/>
<feComposite in2="hardAlpha" operator="out"/>
<feColorMatrix type="matrix" values="0 0 0 0 0 0 0 0 0 0 0 0 0 0 0 0 0 0 0.25 0"/>
<feBlend mode="normal" in2="BackgroundImageFix" result="effect1_dropShadow_4_38"/>
<feBlend mode="normal" in="SourceGraphic" in2="effect1_dropShadow_4_38" result="shape"/>
</filter>
</defs>
</svg>
